<svg width="96" height="27" viewBox="0 0 96 27" fill="none" xmlns="http://www.w3.org/2000/svg">
<g clip-path="url(#clip0_1201_233)">
<g clip-path="url(#clip1_1201_233)">
<path d="M81.9991 1.00631C76.0684 1.00631 71.8843 3.33746 69.9744 6.90349C68.0645 3.32486 63.8804 1.00631 57.9497 1.00631C52.019 1.00631 47.6967 3.41307 45.8371 7.0799C43.9774 3.41307 39.7556 1.00631 33.7244 1.00631C25.4441 1.00631 20.5437 5.53 20.5437 11.6666C20.5437 12.41 20.6191 13.1157 20.7573 13.8087C19.8527 15.346 17.8925 17.3244 13.1932 17.3244C9.15987 17.3244 7.62694 14.59 7.62694 11.6666C7.62694 8.74321 9.17244 6.00883 13.1932 6.00883C15.5178 6.00883 17.0004 6.92869 17.8423 8.25178L21.0715 2.82083C18.9857 1.67416 16.347 0.993713 13.1932 0.993713C4.90034 1.00631 0 5.53 0 11.6666C0 17.8032 4.90034 22.3269 13.1807 22.3269C18.2318 22.3269 21.5364 20.903 23.7227 19.0129C25.9844 21.0794 29.3895 22.3269 33.7244 22.3269C39.7556 22.3269 43.9774 19.9201 45.8371 16.2533C47.6967 19.9201 51.9311 22.3269 57.9497 22.3269C63.9683 22.3269 67.9263 20.0713 69.8739 16.6061V26.0063H76.4202V21.5204C78.0537 22.0497 79.9133 22.3269 81.9865 22.3269C90.2668 22.3269 95.1672 17.8032 95.1672 11.6666C95.1672 5.53 90.2668 1.00631 81.9865 1.00631M33.7244 17.3244C29.7036 17.3244 28.1581 14.59 28.1581 11.6666C28.1581 8.74321 29.7036 6.00883 33.7244 6.00883C37.7452 6.00883 39.2907 8.74321 39.2907 11.6666C39.2907 14.59 37.7452 17.3244 33.7244 17.3244ZM57.9497 17.3244C53.9289 17.3244 52.3834 14.59 52.3834 11.6666C52.3834 8.74321 53.9289 6.00883 57.9497 6.00883C61.9705 6.00883 63.516 8.74321 63.516 11.6666C63.516 14.59 61.9705 17.3244 57.9497 17.3244ZM81.9991 17.3244C81.0818 17.3244 80.2902 17.1857 79.6117 16.9211L76.4202 20.3107V11.6666C76.4202 8.74321 77.9657 6.00883 81.9865 6.00883C86.0073 6.00883 87.5528 8.74321 87.5528 11.6666C87.5528 14.59 86.0073 17.3244 81.9865 17.3244" fill="#0078D2"/>
</g>
</g>
<defs>
<clipPath id="clip0_1201_233">
<rect width="95.1672" height="25.0126" fill="white" transform="translate(0 0.993713)"/>
</clipPath>
<clipPath id="clip1_1201_233">
<rect width="95.1672" height="25.0126" fill="white" transform="translate(0 0.993713)"/>
</clipPath>
</defs>
</svg>
